<svg width="91" height="20" viewBox="0 0 91 20" fill="none" xmlns="http://www.w3.org/2000/svg">
<path d="M27.022 15V5.2H33.112V6.348H28.422V9.526H32.342V10.646H28.422V15H27.022ZM36.3584 15.168C35.7797 15.168 35.299 15.07 34.9164 14.874C34.5337 14.678 34.249 14.4167 34.0624 14.09C33.8757 13.754 33.7824 13.3947 33.7824 13.012C33.7824 12.5453 33.9037 12.1487 34.1464 11.822C34.389 11.486 34.7344 11.2293 35.1824 11.052C35.6304 10.8747 36.167 10.786 36.7924 10.786H38.6264C38.6264 10.3753 38.5657 10.0347 38.4444 9.764C38.323 9.49333 38.141 9.29267 37.8984 9.162C37.665 9.022 37.3664 8.952 37.0024 8.952C36.5824 8.952 36.223 9.05467 35.9244 9.26C35.6257 9.456 35.439 9.75 35.3644 10.142H33.9644C34.0204 9.64733 34.1884 9.22733 34.4684 8.882C34.7577 8.52733 35.1264 8.25667 35.5744 8.07C36.0224 7.874 36.4984 7.776 37.0024 7.776C37.665 7.776 38.2204 7.89267 38.6684 8.126C39.1164 8.35933 39.4524 8.69067 39.6764 9.12C39.9097 9.54 40.0264 10.044 40.0264 10.632V15H38.8084L38.6964 13.81C38.5937 13.9967 38.4724 14.174 38.3324 14.342C38.1924 14.51 38.0244 14.6547 37.8284 14.776C37.6417 14.8973 37.4224 14.9907 37.1704 15.056C36.9277 15.1307 36.657 15.168 36.3584 15.168ZM36.6244 14.034C36.923 14.034 37.1937 13.9733 37.4364 13.852C37.679 13.7307 37.8844 13.5673 38.0524 13.362C38.2297 13.1473 38.3604 12.9093 38.4444 12.648C38.5377 12.3773 38.589 12.102 38.5984 11.822V11.78H36.9324C36.531 11.78 36.2044 11.8313 35.9524 11.934C35.7097 12.0273 35.5324 12.158 35.4204 12.326C35.3084 12.494 35.2524 12.69 35.2524 12.914C35.2524 13.1473 35.3037 13.348 35.4064 13.516C35.5184 13.6747 35.677 13.8007 35.8824 13.894C36.0877 13.9873 36.335 14.034 36.6244 14.034ZM45.0753 15.168C44.394 15.168 43.7873 15.014 43.2553 14.706C42.7233 14.3887 42.3033 13.9547 41.9953 13.404C41.6967 12.8533 41.5473 12.214 41.5473 11.486C41.5473 10.7487 41.6967 10.1047 41.9953 9.554C42.3033 8.994 42.7233 8.56 43.2553 8.252C43.7873 7.93467 44.394 7.776 45.0753 7.776C45.934 7.776 46.6527 8 47.2313 8.448C47.81 8.896 48.1787 9.50267 48.3373 10.268H46.8813C46.788 9.85733 46.5733 9.54 46.2373 9.316C45.9107 9.092 45.5187 8.98 45.0613 8.98C44.688 8.98 44.3427 9.078 44.0253 9.274C43.708 9.46067 43.4513 9.74067 43.2553 10.114C43.0687 10.478 42.9753 10.9307 42.9753 11.472C42.9753 11.8733 43.0313 12.2327 43.1433 12.55C43.2553 12.858 43.4047 13.1193 43.5913 13.334C43.7873 13.5487 44.0113 13.712 44.2633 13.824C44.5153 13.9267 44.7813 13.978 45.0613 13.978C45.3693 13.978 45.6447 13.9313 45.8873 13.838C46.1393 13.7353 46.3493 13.586 46.5173 13.39C46.6947 13.194 46.816 12.9607 46.8813 12.69H48.3373C48.1787 13.4367 47.81 14.0387 47.2313 14.496C46.6527 14.944 45.934 15.168 45.0753 15.168ZM53.1674 15.168C52.4954 15.168 51.8981 15.014 51.3754 14.706C50.8528 14.398 50.4421 13.9687 50.1434 13.418C49.8541 12.8673 49.7094 12.228 49.7094 11.5C49.7094 10.7533 49.8541 10.1047 50.1434 9.554C50.4421 8.994 50.8528 8.56 51.3754 8.252C51.8981 7.93467 52.5048 7.776 53.1954 7.776C53.8861 7.776 54.4788 7.93 54.9734 8.238C55.4681 8.546 55.8508 8.95667 56.1214 9.47C56.3921 9.974 56.5274 10.534 56.5274 11.15C56.5274 11.2433 56.5228 11.346 56.5134 11.458C56.5134 11.5607 56.5088 11.6773 56.4994 11.808H50.7314V10.814H55.1274C55.0994 10.226 54.9034 9.76867 54.5394 9.442C54.1754 9.106 53.7228 8.938 53.1814 8.938C52.7988 8.938 52.4488 9.02667 52.1314 9.204C51.8141 9.372 51.5574 9.624 51.3614 9.96C51.1748 10.2867 51.0814 10.702 51.0814 11.206V11.598C51.0814 12.1207 51.1748 12.564 51.3614 12.928C51.5574 13.2827 51.8141 13.5533 52.1314 13.74C52.4488 13.9173 52.7941 14.006 53.1674 14.006C53.6154 14.006 53.9841 13.908 54.2734 13.712C54.5628 13.516 54.7774 13.25 54.9174 12.914H56.3174C56.1961 13.3433 55.9908 13.7307 55.7014 14.076C55.4121 14.412 55.0528 14.678 54.6234 14.874C54.2034 15.07 53.7181 15.168 53.1674 15.168ZM61.9329 15.168C61.5502 15.168 61.2002 15.112 60.8829 15C60.5749 14.8973 60.3042 14.7527 60.0709 14.566C59.8375 14.3793 59.6415 14.1647 59.4829 13.922L59.3429 15H58.0829V4.92H59.4829V9.05C59.7069 8.69533 60.0195 8.39667 60.4209 8.154C60.8315 7.902 61.3355 7.776 61.9329 7.776C62.6049 7.776 63.1975 7.93933 63.7109 8.266C64.2242 8.58333 64.6209 9.022 64.9009 9.582C65.1902 10.1327 65.3349 10.7673 65.3349 11.486C65.3349 12.186 65.1902 12.816 64.9009 13.376C64.6209 13.936 64.2242 14.3747 63.7109 14.692C63.1975 15.0093 62.6049 15.168 61.9329 15.168ZM61.7089 13.95C62.1382 13.95 62.5162 13.8473 62.8429 13.642C63.1789 13.4367 63.4402 13.1473 63.6269 12.774C63.8229 12.4007 63.9209 11.9667 63.9209 11.472C63.9209 10.9773 63.8229 10.548 63.6269 10.184C63.4402 9.81067 63.1789 9.52133 62.8429 9.316C62.5162 9.10133 62.1382 8.994 61.7089 8.994C61.2702 8.994 60.8829 9.10133 60.5469 9.316C60.2202 9.52133 59.9635 9.81067 59.7769 10.184C59.5902 10.548 59.4969 10.9773 59.4969 11.472C59.4969 11.9667 59.5902 12.4007 59.7769 12.774C59.9635 13.1473 60.2202 13.4367 60.5469 13.642C60.8829 13.8473 61.2702 13.95 61.7089 13.95ZM70.1896 15.168C69.5269 15.168 68.9296 15.014 68.3976 14.706C67.8749 14.398 67.4596 13.9687 67.1516 13.418C66.8529 12.858 66.7036 12.214 66.7036 11.486C66.7036 10.7393 66.8576 10.0907 67.1656 9.54C67.4736 8.98 67.8936 8.546 68.4256 8.238C68.9576 7.93 69.5549 7.776 70.2176 7.776C70.8896 7.776 71.4869 7.93 72.0096 8.238C72.5322 8.546 72.9429 8.97533 73.2416 9.526C73.5496 10.0767 73.7036 10.7253 73.7036 11.472C73.7036 12.2187 73.5496 12.8673 73.2416 13.418C72.9429 13.9687 72.5276 14.398 71.9956 14.706C71.4636 15.014 70.8616 15.168 70.1896 15.168ZM70.1896 13.964C70.5722 13.964 70.9176 13.8707 71.2256 13.684C71.5429 13.4973 71.7949 13.222 71.9816 12.858C72.1776 12.4847 72.2756 12.0227 72.2756 11.472C72.2756 10.9213 72.1822 10.464 71.9956 10.1C71.8089 9.72667 71.5569 9.44667 71.2396 9.26C70.9316 9.07333 70.5909 8.98 70.2176 8.98C69.8442 8.98 69.4989 9.07333 69.1816 9.26C68.8642 9.44667 68.6076 9.72667 68.4116 10.1C68.2249 10.464 68.1316 10.9213 68.1316 11.472C68.1316 12.0227 68.2249 12.4847 68.4116 12.858C68.6076 13.222 68.8596 13.4973 69.1676 13.684C69.4849 13.8707 69.8256 13.964 70.1896 13.964ZM78.5704 15.168C77.9078 15.168 77.3104 15.014 76.7784 14.706C76.2558 14.398 75.8404 13.9687 75.5324 13.418C75.2338 12.858 75.0844 12.214 75.0844 11.486C75.0844 10.7393 75.2384 10.0907 75.5464 9.54C75.8544 8.98 76.2744 8.546 76.8064 8.238C77.3384 7.93 77.9358 7.776 78.5984 7.776C79.2704 7.776 79.8678 7.93 80.3904 8.238C80.9131 8.546 81.3238 8.97533 81.6224 9.526C81.9304 10.0767 82.0844 10.7253 82.0844 11.472C82.0844 12.2187 81.9304 12.8673 81.6224 13.418C81.3238 13.9687 80.9084 14.398 80.3764 14.706C79.8444 15.014 79.2424 15.168 78.5704 15.168ZM78.5704 13.964C78.9531 13.964 79.2984 13.8707 79.6064 13.684C79.9238 13.4973 80.1758 13.222 80.3624 12.858C80.5584 12.4847 80.6564 12.0227 80.6564 11.472C80.6564 10.9213 80.5631 10.464 80.3764 10.1C80.1898 9.72667 79.9378 9.44667 79.6204 9.26C79.3124 9.07333 78.9718 8.98 78.5984 8.98C78.2251 8.98 77.8798 9.07333 77.5624 9.26C77.2451 9.44667 76.9884 9.72667 76.7924 10.1C76.6058 10.464 76.5124 10.9213 76.5124 11.472C76.5124 12.0227 76.6058 12.4847 76.7924 12.858C76.9884 13.222 77.2404 13.4973 77.5484 13.684C77.8658 13.8707 78.2064 13.964 78.5704 13.964ZM88.1693 15L84.9213 11.136L87.8613 7.944H89.5553L86.0553 11.682V10.632L89.9333 15H88.1693ZM83.7313 15V4.92H85.1313V15H83.7313Z" fill="white"/>
<path d="M3.75 3.25H14.25C14.6478 3.25 15.0294 3.40804 15.3107 3.68934C15.592 3.97064 15.75 4.35218 15.75 4.75V15.25C15.75 15.6478 15.592 16.0294 15.3107 16.3107C15.0294 16.592 14.6478 16.75 14.25 16.75H3.75C3.35218 16.75 2.97064 16.592 2.68934 16.3107C2.40804 16.0294 2.25 15.6478 2.25 15.25V4.75C2.25 4.35218 2.40804 3.97064 2.68934 3.68934C2.97064 3.40804 3.35218 3.25 3.75 3.25ZM13.5 4.75H11.625C10.9288 4.75 10.2611 5.02656 9.76884 5.51884C9.27656 6.01113 9 6.67881 9 7.375V9.25H7.5V11.5H9V16.75H11.25V11.5H13.5V9.25H11.25V7.75C11.25 7.55109 11.329 7.36032 11.4697 7.21967C11.6103 7.07902 11.8011 7 12 7H13.5V4.75Z" fill="white"/>
</svg>
