<svg width="92" height="20" viewBox="0 0 92 20" fill="none" xmlns="http://www.w3.org/2000/svg">
<path d="M27.1321 15V5.2H28.5321V15H27.1321ZM30.5074 15V7.944H31.7674L31.8514 9.148C32.0754 8.728 32.3928 8.39667 32.8034 8.154C33.2141 7.902 33.6854 7.776 34.2174 7.776C34.7774 7.776 35.2581 7.888 35.6594 8.112C36.0608 8.336 36.3734 8.67667 36.5974 9.134C36.8214 9.582 36.9334 10.1467 36.9334 10.828V15H35.5334V10.968C35.5334 10.3147 35.3888 9.82 35.0994 9.484C34.8101 9.148 34.3901 8.98 33.8394 8.98C33.4754 8.98 33.1488 9.06867 32.8594 9.246C32.5701 9.414 32.3368 9.666 32.1594 10.002C31.9914 10.338 31.9074 10.7487 31.9074 11.234V15H30.5074ZM41.4542 15.168C40.8569 15.168 40.3342 15.07 39.8862 14.874C39.4382 14.678 39.0836 14.4027 38.8222 14.048C38.5609 13.6933 38.4022 13.278 38.3462 12.802H39.7742C39.8209 13.026 39.9096 13.2313 40.0402 13.418C40.1802 13.6047 40.3669 13.754 40.6002 13.866C40.8429 13.978 41.1276 14.034 41.4542 14.034C41.7622 14.034 42.0142 13.992 42.2102 13.908C42.4156 13.8147 42.5649 13.6933 42.6582 13.544C42.7516 13.3853 42.7982 13.2173 42.7982 13.04C42.7982 12.7787 42.7329 12.5827 42.6022 12.452C42.4809 12.312 42.2942 12.2047 42.0422 12.13C41.7996 12.046 41.5056 11.9713 41.1602 11.906C40.8336 11.85 40.5162 11.7753 40.2082 11.682C39.9096 11.5793 39.6389 11.4533 39.3962 11.304C39.1629 11.1547 38.9762 10.968 38.8362 10.744C38.6962 10.5107 38.6262 10.226 38.6262 9.89C38.6262 9.48867 38.7336 9.12933 38.9482 8.812C39.1629 8.48533 39.4662 8.23333 39.8582 8.056C40.2596 7.86933 40.7309 7.776 41.2722 7.776C42.0562 7.776 42.6862 7.96267 43.1622 8.336C43.6382 8.70933 43.9182 9.23667 44.0022 9.918H42.6442C42.6069 9.60067 42.4669 9.358 42.2242 9.19C41.9816 9.01267 41.6596 8.924 41.2582 8.924C40.8569 8.924 40.5489 9.00333 40.3342 9.162C40.1196 9.32067 40.0122 9.53067 40.0122 9.792C40.0122 9.96 40.0729 10.1093 40.1942 10.24C40.3156 10.3707 40.4929 10.4827 40.7262 10.576C40.9689 10.66 41.2629 10.7393 41.6082 10.814C42.1029 10.9073 42.5462 11.024 42.9382 11.164C43.3302 11.304 43.6429 11.5093 43.8762 11.78C44.1096 12.0507 44.2262 12.438 44.2262 12.942C44.2356 13.3807 44.1236 13.768 43.8902 14.104C43.6662 14.44 43.3442 14.7013 42.9242 14.888C42.5136 15.0747 42.0236 15.168 41.4542 15.168ZM48.4995 15C48.0515 15 47.6642 14.93 47.3375 14.79C47.0108 14.65 46.7588 14.4167 46.5815 14.09C46.4042 13.7633 46.3155 13.32 46.3155 12.76V9.134H45.0975V7.944H46.3155L46.4835 6.18H47.7155V7.944H49.7175V9.134H47.7155V12.774C47.7155 13.1753 47.7995 13.4507 47.9675 13.6C48.1355 13.74 48.4248 13.81 48.8355 13.81H49.6475V15H48.4995ZM53.5993 15.168C53.0207 15.168 52.54 15.07 52.1573 14.874C51.7747 14.678 51.49 14.4167 51.3033 14.09C51.1167 13.754 51.0233 13.3947 51.0233 13.012C51.0233 12.5453 51.1447 12.1487 51.3873 11.822C51.63 11.486 51.9753 11.2293 52.4233 11.052C52.8713 10.8747 53.408 10.786 54.0333 10.786H55.8673C55.8673 10.3753 55.8067 10.0347 55.6853 9.764C55.564 9.49333 55.382 9.29267 55.1393 9.162C54.906 9.022 54.6073 8.952 54.2433 8.952C53.8233 8.952 53.464 9.05467 53.1653 9.26C52.8667 9.456 52.68 9.75 52.6053 10.142H51.2053C51.2613 9.64733 51.4293 9.22733 51.7093 8.882C51.9987 8.52733 52.3673 8.25667 52.8153 8.07C53.2633 7.874 53.7393 7.776 54.2433 7.776C54.906 7.776 55.4613 7.89267 55.9093 8.126C56.3573 8.35933 56.6933 8.69067 56.9173 9.12C57.1507 9.54 57.2673 10.044 57.2673 10.632V15H56.0493L55.9373 13.81C55.8347 13.9967 55.7133 14.174 55.5733 14.342C55.4333 14.51 55.2653 14.6547 55.0693 14.776C54.8827 14.8973 54.6633 14.9907 54.4113 15.056C54.1687 15.1307 53.898 15.168 53.5993 15.168ZM53.8653 14.034C54.164 14.034 54.4347 13.9733 54.6773 13.852C54.92 13.7307 55.1253 13.5673 55.2933 13.362C55.4707 13.1473 55.6013 12.9093 55.6853 12.648C55.7787 12.3773 55.83 12.102 55.8393 11.822V11.78H54.1733C53.772 11.78 53.4453 11.8313 53.1933 11.934C52.9507 12.0273 52.7733 12.158 52.6613 12.326C52.5493 12.494 52.4933 12.69 52.4933 12.914C52.4933 13.1473 52.5447 13.348 52.6473 13.516C52.7593 13.6747 52.918 13.8007 53.1233 13.894C53.3287 13.9873 53.576 14.034 53.8653 14.034ZM61.9243 18.248C61.2803 18.248 60.711 18.164 60.2163 17.996C59.7216 17.8373 59.339 17.59 59.0683 17.254C58.7976 16.918 58.6623 16.5073 58.6623 16.022C58.6623 15.77 58.7183 15.5133 58.8303 15.252C58.9423 15 59.1243 14.7573 59.3763 14.524C59.6283 14.2907 59.969 14.0807 60.3983 13.894L61.1823 14.524C60.7063 14.7013 60.3843 14.9113 60.2163 15.154C60.0576 15.406 59.9783 15.6487 59.9783 15.882C59.9783 16.162 60.0623 16.3953 60.2303 16.582C60.3983 16.7687 60.627 16.9087 60.9163 17.002C61.215 17.0953 61.551 17.142 61.9243 17.142C62.2883 17.142 62.6056 17.0907 62.8763 16.988C63.147 16.8853 63.357 16.7407 63.5063 16.554C63.6556 16.3673 63.7303 16.148 63.7303 15.896C63.7303 15.5973 63.6183 15.3453 63.3943 15.14C63.1703 14.944 62.741 14.8273 62.1063 14.79C61.5743 14.7527 61.1216 14.7013 60.7483 14.636C60.3843 14.5707 60.0716 14.4913 59.8103 14.398C59.5583 14.3047 59.3436 14.202 59.1663 14.09C58.9983 13.978 58.8536 13.8613 58.7323 13.74V13.418L60.1323 11.976L61.2663 12.368L59.7403 13.782L60.0343 13.152C60.137 13.2173 60.235 13.2827 60.3283 13.348C60.4216 13.404 60.5476 13.4553 60.7063 13.502C60.865 13.5487 61.0796 13.5907 61.3503 13.628C61.621 13.6653 61.9756 13.7027 62.4143 13.74C63.049 13.7867 63.5576 13.8987 63.9403 14.076C64.3323 14.2533 64.617 14.4913 64.7943 14.79C64.9716 15.0887 65.0603 15.4433 65.0603 15.854C65.0603 16.2553 64.9483 16.638 64.7243 17.002C64.5096 17.366 64.169 17.6647 63.7023 17.898C63.245 18.1313 62.6523 18.248 61.9243 18.248ZM61.9243 12.83C61.327 12.83 60.8183 12.718 60.3983 12.494C59.9876 12.27 59.6703 11.9667 59.4463 11.584C59.2316 11.2013 59.1243 10.7767 59.1243 10.31C59.1243 9.834 59.2316 9.40933 59.4463 9.036C59.6703 8.65333 59.9923 8.35 60.4123 8.126C60.8323 7.89267 61.3363 7.776 61.9243 7.776C62.5123 7.776 63.0116 7.89267 63.4223 8.126C63.8423 8.35 64.1596 8.65333 64.3743 9.036C64.5983 9.40933 64.7103 9.834 64.7103 10.31C64.7103 10.7767 64.5983 11.2013 64.3743 11.584C64.1596 11.9667 63.8423 12.27 63.4223 12.494C63.0116 12.718 62.5123 12.83 61.9243 12.83ZM61.9243 11.71C62.3816 11.71 62.7456 11.5933 63.0163 11.36C63.287 11.1173 63.4223 10.7673 63.4223 10.31C63.4223 9.85267 63.287 9.50733 63.0163 9.274C62.7456 9.03133 62.3816 8.91 61.9243 8.91C61.467 8.91 61.0983 9.03133 60.8183 9.274C60.5383 9.50733 60.3983 9.85267 60.3983 10.31C60.3983 10.7673 60.5383 11.1173 60.8183 11.36C61.0983 11.5933 61.467 11.71 61.9243 11.71ZM63.0723 9.05L62.7363 7.944H65.6343V8.91L63.0723 9.05ZM67.0387 15V7.944H68.2987L68.4247 9.274C68.5833 8.95667 68.7887 8.69067 69.0407 8.476C69.2927 8.252 69.5867 8.07933 69.9227 7.958C70.268 7.83667 70.66 7.776 71.0987 7.776V9.26H70.5947C70.3053 9.26 70.03 9.29733 69.7687 9.372C69.5073 9.43733 69.274 9.554 69.0687 9.722C68.8727 9.89 68.7187 10.1187 68.6067 10.408C68.4947 10.6973 68.4387 11.0567 68.4387 11.486V15H67.0387ZM74.7224 15.168C74.1437 15.168 73.663 15.07 73.2804 14.874C72.8977 14.678 72.613 14.4167 72.4264 14.09C72.2397 13.754 72.1464 13.3947 72.1464 13.012C72.1464 12.5453 72.2677 12.1487 72.5104 11.822C72.753 11.486 73.0984 11.2293 73.5464 11.052C73.9944 10.8747 74.531 10.786 75.1564 10.786H76.9904C76.9904 10.3753 76.9297 10.0347 76.8084 9.764C76.687 9.49333 76.505 9.29267 76.2624 9.162C76.029 9.022 75.7304 8.952 75.3664 8.952C74.9464 8.952 74.587 9.05467 74.2884 9.26C73.9897 9.456 73.803 9.75 73.7284 10.142H72.3284C72.3844 9.64733 72.5524 9.22733 72.8324 8.882C73.1217 8.52733 73.4904 8.25667 73.9384 8.07C74.3864 7.874 74.8624 7.776 75.3664 7.776C76.029 7.776 76.5844 7.89267 77.0324 8.126C77.4804 8.35933 77.8164 8.69067 78.0404 9.12C78.2737 9.54 78.3904 10.044 78.3904 10.632V15H77.1724L77.0604 13.81C76.9577 13.9967 76.8364 14.174 76.6964 14.342C76.5564 14.51 76.3884 14.6547 76.1924 14.776C76.0057 14.8973 75.7864 14.9907 75.5344 15.056C75.2917 15.1307 75.021 15.168 74.7224 15.168ZM74.9884 14.034C75.287 14.034 75.5577 13.9733 75.8004 13.852C76.043 13.7307 76.2484 13.5673 76.4164 13.362C76.5937 13.1473 76.7244 12.9093 76.8084 12.648C76.9017 12.3773 76.953 12.102 76.9624 11.822V11.78H75.2964C74.895 11.78 74.5684 11.8313 74.3164 11.934C74.0737 12.0273 73.8964 12.158 73.7844 12.326C73.6724 12.494 73.6164 12.69 73.6164 12.914C73.6164 13.1473 73.6677 13.348 73.7704 13.516C73.8824 13.6747 74.041 13.8007 74.2464 13.894C74.4517 13.9873 74.699 14.034 74.9884 14.034ZM80.1773 15V7.944H81.4373L81.5353 8.938C81.7593 8.574 82.058 8.28933 82.4313 8.084C82.8047 7.87867 83.2247 7.776 83.6913 7.776C84.046 7.776 84.368 7.82733 84.6573 7.93C84.9467 8.02333 85.2033 8.168 85.4273 8.364C85.6513 8.56 85.8333 8.80267 85.9733 9.092C86.2253 8.68133 86.5613 8.35933 86.9813 8.126C87.4107 7.89267 87.8633 7.776 88.3393 7.776C88.9087 7.776 89.3987 7.89267 89.8093 8.126C90.22 8.35 90.5327 8.69067 90.7473 9.148C90.962 9.596 91.0693 10.156 91.0693 10.828V15H89.6833V10.968C89.6833 10.3147 89.548 9.82 89.2773 9.484C89.016 9.148 88.6287 8.98 88.1153 8.98C87.77 8.98 87.462 9.06867 87.1913 9.246C86.9207 9.42333 86.706 9.68 86.5473 10.016C86.398 10.352 86.3233 10.7627 86.3233 11.248V15H84.9233V10.968C84.9233 10.3147 84.788 9.82 84.5173 9.484C84.256 9.148 83.8687 8.98 83.3553 8.98C83.0287 8.98 82.73 9.06867 82.4593 9.246C82.1887 9.42333 81.974 9.68 81.8153 10.016C81.6567 10.352 81.5773 10.7627 81.5773 11.248V15H80.1773Z" fill="white"/>
<path d="M5.96011 2.5H12.2601C14.6601 2.5 16.6101 4.45 16.6101 6.85V13.15C16.6101 14.3037 16.1518 15.4101 15.336 16.2259C14.5202 17.0417 13.4138 17.5 12.2601 17.5H5.96011C3.56011 17.5 1.61011 15.55 1.61011 13.15V6.85C1.61011 5.69631 2.06841 4.58987 2.88419 3.77409C3.69998 2.9583 4.80642 2.5 5.96011 2.5ZM5.81011 4C5.09402 4 4.40727 4.28446 3.90092 4.79081C3.39457 5.29716 3.11011 5.98392 3.11011 6.7V13.3C3.11011 14.7925 4.31761 16 5.81011 16H12.4101C13.1262 16 13.8129 15.7155 14.3193 15.2092C14.8256 14.7028 15.1101 14.0161 15.1101 13.3V6.7C15.1101 5.2075 13.9026 4 12.4101 4H5.81011ZM13.0476 5.125C13.2962 5.125 13.5347 5.22377 13.7105 5.39959C13.8863 5.5754 13.9851 5.81386 13.9851 6.0625C13.9851 6.31114 13.8863 6.5496 13.7105 6.72541C13.5347 6.90123 13.2962 7 13.0476 7C12.799 7 12.5605 6.90123 12.3847 6.72541C12.2089 6.5496 12.1101 6.31114 12.1101 6.0625C12.1101 5.81386 12.2089 5.5754 12.3847 5.39959C12.5605 5.22377 12.799 5.125 13.0476 5.125ZM9.11011 6.25C10.1047 6.25 11.0585 6.64509 11.7618 7.34835C12.465 8.05161 12.8601 9.00544 12.8601 10C12.8601 10.9946 12.465 11.9484 11.7618 12.6517C11.0585 13.3549 10.1047 13.75 9.11011 13.75C8.11555 13.75 7.16172 13.3549 6.45846 12.6517C5.7552 11.9484 5.36011 10.9946 5.36011 10C5.36011 9.00544 5.7552 8.05161 6.45846 7.34835C7.16172 6.64509 8.11555 6.25 9.11011 6.25ZM9.11011 7.75C8.51337 7.75 7.94107 7.98705 7.51912 8.40901C7.09716 8.83097 6.86011 9.40326 6.86011 10C6.86011 10.5967 7.09716 11.169 7.51912 11.591C7.94107 12.0129 8.51337 12.25 9.11011 12.25C9.70684 12.25 10.2791 12.0129 10.7011 11.591C11.1231 11.169 11.3601 10.5967 11.3601 10C11.3601 9.40326 11.1231 8.83097 10.7011 8.40901C10.2791 7.98705 9.70684 7.75 9.11011 7.75Z" fill="white"/>
</svg>
