<svg width="81" height="20" viewBox="0 0 81 20" fill="none" xmlns="http://www.w3.org/2000/svg">
<path d="M27.022 15V5.2H28.422V13.894H32.902V15H27.022ZM34.5695 15V7.944H35.9695V15H34.5695ZM35.2835 6.614C35.0129 6.614 34.7889 6.53 34.6115 6.362C34.4435 6.194 34.3595 5.97933 34.3595 5.718C34.3595 5.466 34.4435 5.26067 34.6115 5.102C34.7889 4.934 35.0129 4.85 35.2835 4.85C35.5449 4.85 35.7642 4.934 35.9415 5.102C36.1189 5.26067 36.2075 5.466 36.2075 5.718C36.2075 5.97933 36.1189 6.194 35.9415 6.362C35.7642 6.53 35.5449 6.614 35.2835 6.614ZM37.9715 15V7.944H39.2315L39.3155 9.148C39.5395 8.728 39.8569 8.39667 40.2675 8.154C40.6782 7.902 41.1495 7.776 41.6815 7.776C42.2415 7.776 42.7222 7.888 43.1235 8.112C43.5249 8.336 43.8375 8.67667 44.0615 9.134C44.2855 9.582 44.3975 10.1467 44.3975 10.828V15H42.9975V10.968C42.9975 10.3147 42.8529 9.82 42.5635 9.484C42.2742 9.148 41.8542 8.98 41.3035 8.98C40.9395 8.98 40.6129 9.06867 40.3235 9.246C40.0342 9.414 39.8009 9.666 39.6235 10.002C39.4555 10.338 39.3715 10.7487 39.3715 11.234V15H37.9715ZM50.6263 15L47.3783 11.136L50.3183 7.944H52.0123L48.5123 11.682V10.632L52.3903 15H50.6263ZM46.1883 15V4.92H47.5883V15H46.1883ZM56.2299 15.168C55.5579 15.168 54.9606 15.014 54.4379 14.706C53.9153 14.398 53.5046 13.9687 53.2059 13.418C52.9166 12.8673 52.7719 12.228 52.7719 11.5C52.7719 10.7533 52.9166 10.1047 53.2059 9.554C53.5046 8.994 53.9153 8.56 54.4379 8.252C54.9606 7.93467 55.5673 7.776 56.2579 7.776C56.9486 7.776 57.5413 7.93 58.0359 8.238C58.5306 8.546 58.9133 8.95667 59.1839 9.47C59.4546 9.974 59.5899 10.534 59.5899 11.15C59.5899 11.2433 59.5853 11.346 59.5759 11.458C59.5759 11.5607 59.5713 11.6773 59.5619 11.808H53.7939V10.814H58.1899C58.1619 10.226 57.9659 9.76867 57.6019 9.442C57.2379 9.106 56.7853 8.938 56.2439 8.938C55.8613 8.938 55.5113 9.02667 55.1939 9.204C54.8766 9.372 54.6199 9.624 54.4239 9.96C54.2373 10.2867 54.1439 10.702 54.1439 11.206V11.598C54.1439 12.1207 54.2373 12.564 54.4239 12.928C54.6199 13.2827 54.8766 13.5533 55.1939 13.74C55.5113 13.9173 55.8566 14.006 56.2299 14.006C56.6779 14.006 57.0466 13.908 57.3359 13.712C57.6253 13.516 57.8399 13.25 57.9799 12.914H59.3799C59.2586 13.3433 59.0533 13.7307 58.7639 14.076C58.4746 14.412 58.1153 14.678 57.6859 14.874C57.2659 15.07 56.7806 15.168 56.2299 15.168ZM64.2814 15.168C63.6094 15.168 63.0167 15.0093 62.5034 14.692C61.99 14.3653 61.5887 13.9267 61.2994 13.376C61.0194 12.816 60.8794 12.1813 60.8794 11.472C60.8794 10.7533 61.0194 10.1187 61.2994 9.568C61.5887 9.01733 61.99 8.58333 62.5034 8.266C63.026 7.93933 63.6234 7.776 64.2954 7.776C64.846 7.776 65.3314 7.888 65.7514 8.112C66.1714 8.32667 66.498 8.63467 66.7314 9.036V4.92H68.1314V15H66.8714L66.7314 13.908C66.5914 14.1227 66.4094 14.328 66.1854 14.524C65.9614 14.7107 65.6907 14.8647 65.3734 14.986C65.056 15.1073 64.692 15.168 64.2814 15.168ZM64.5054 13.95C64.944 13.95 65.3314 13.8473 65.6674 13.642C66.0034 13.4367 66.26 13.1473 66.4374 12.774C66.624 12.4007 66.7174 11.9667 66.7174 11.472C66.7174 10.9773 66.624 10.548 66.4374 10.184C66.26 9.81067 66.0034 9.52133 65.6674 9.316C65.3314 9.10133 64.944 8.994 64.5054 8.994C64.0854 8.994 63.7074 9.10133 63.3714 9.316C63.0354 9.52133 62.774 9.81067 62.5874 10.184C62.4007 10.548 62.3074 10.9773 62.3074 11.472C62.3074 11.9667 62.4007 12.4007 62.5874 12.774C62.774 13.1473 63.0354 13.4367 63.3714 13.642C63.7074 13.8473 64.0854 13.95 64.5054 13.95ZM70.1158 15V5.2H71.5158V15H70.1158ZM73.4911 15V7.944H74.7511L74.8351 9.148C75.0591 8.728 75.3764 8.39667 75.7871 8.154C76.1977 7.902 76.6691 7.776 77.2011 7.776C77.7611 7.776 78.2417 7.888 78.6431 8.112C79.0444 8.336 79.3571 8.67667 79.5811 9.134C79.8051 9.582 79.9171 10.1467 79.9171 10.828V15H78.5171V10.968C78.5171 10.3147 78.3724 9.82 78.0831 9.484C77.7937 9.148 77.3737 8.98 76.8231 8.98C76.4591 8.98 76.1324 9.06867 75.8431 9.246C75.5537 9.414 75.3204 9.666 75.1431 10.002C74.9751 10.338 74.8911 10.7487 74.8911 11.234V15H73.4911Z" fill="white"/>
<path d="M14.25 3.25C14.6478 3.25 15.0294 3.40804 15.3107 3.68934C15.592 3.97064 15.75 4.35218 15.75 4.75V15.25C15.75 15.6478 15.592 16.0294 15.3107 16.3107C15.0294 16.592 14.6478 16.75 14.25 16.75H3.75C3.35218 16.75 2.97064 16.592 2.68934 16.3107C2.40804 16.0294 2.25 15.6478 2.25 15.25V4.75C2.25 4.35218 2.40804 3.97064 2.68934 3.68934C2.97064 3.40804 3.35218 3.25 3.75 3.25H14.25ZM13.875 14.875V10.9C13.875 10.2515 13.6174 9.62965 13.1589 9.17112C12.7003 8.7126 12.0785 8.455 11.43 8.455C10.7925 8.455 10.05 8.845 9.69 9.43V8.5975H7.5975V14.875H9.69V11.1775C9.69 10.6 10.155 10.1275 10.7325 10.1275C11.011 10.1275 11.278 10.2381 11.475 10.435C11.6719 10.632 11.7825 10.899 11.7825 11.1775V14.875H13.875ZM5.16 7.42C5.49417 7.42 5.81466 7.28725 6.05095 7.05095C6.28725 6.81466 6.42 6.49417 6.42 6.16C6.42 5.4625 5.8575 4.8925 5.16 4.8925C4.82384 4.8925 4.50144 5.02604 4.26374 5.26374C4.02604 5.50144 3.8925 5.82384 3.8925 6.16C3.8925 6.8575 4.4625 7.42 5.16 7.42ZM6.2025 14.875V8.5975H4.125V14.875H6.2025Z" fill="white"/>
</svg>
