<svg width="16" height="16" viewBox="0 0 16 16" fill="none" xmlns="http://www.w3.org/2000/svg">
<path d="M5.86894 3.28417L5.56694 2.60469C5.36948 2.16041 5.27075 1.93826 5.1231 1.76826C4.93805 1.55521 4.69684 1.39846 4.427 1.31589C4.21168 1.25 3.96859 1.25 3.4824 1.25C2.77117 1.25 2.41556 1.25 2.11704 1.38672C1.76539 1.54777 1.44782 1.89746 1.32129 2.26295C1.21387 2.57322 1.24465 2.89207 1.30618 3.52978C1.96117 10.3176 5.68261 14.0391 12.4704 14.694C13.1082 14.7556 13.4271 14.7864 13.7373 14.679C14.1028 14.5525 14.4525 14.2348 14.6136 13.8832C14.7502 13.5846 14.7502 13.2291 14.7502 12.5178C14.7502 12.0316 14.7502 11.7885 14.6844 11.5732C14.6018 11.3034 14.445 11.0622 14.232 10.8771C14.062 10.7295 13.8399 10.6308 13.3956 10.4333L12.7161 10.1313C12.2349 9.91745 11.9943 9.81057 11.7499 9.78732C11.5159 9.76505 11.28 9.7979 11.061 9.88317C10.8322 9.97227 10.63 10.1408 10.2255 10.4778C9.82286 10.8134 9.62156 10.9812 9.37556 11.071C9.15746 11.1507 8.86916 11.1802 8.63951 11.1463C8.38039 11.1082 8.18201 11.0022 7.78519 10.7901C6.55069 10.1304 5.86989 9.4496 5.21014 8.21503C4.9981 7.81828 4.89208 7.61983 4.85389 7.36078C4.82005 7.13105 4.84955 6.84275 4.92922 6.62472C5.01908 6.37871 5.18685 6.17739 5.52238 5.77475C5.85946 5.37026 6.028 5.16802 6.1171 4.93918C6.20238 4.72021 6.23521 4.4843 6.21295 4.25036C6.1897 4.00589 6.08278 3.76532 5.86894 3.28417Z" stroke="white" stroke-width="1.25" stroke-linecap="round"/>
</svg>
