<svg width="73" height="20" viewBox="0 0 73 20" fill="none" xmlns="http://www.w3.org/2000/svg">
<path d="M29.304 15V6.348H26.406V5.2H33.616V6.348H30.704V15H29.304ZM35.6398 15L33.5678 7.944H34.9538L36.4938 13.824L36.2278 13.81L37.9358 7.944H39.5038L41.2118 13.81L40.9458 13.824L42.4718 7.944H43.8858L41.8138 15H40.3718L38.5798 8.882H38.8598L37.0678 15H35.6398ZM45.2473 15V7.944H46.6473V15H45.2473ZM45.9613 6.614C45.6906 6.614 45.4666 6.53 45.2893 6.362C45.1213 6.194 45.0373 5.97933 45.0373 5.718C45.0373 5.466 45.1213 5.26067 45.2893 5.102C45.4666 4.934 45.6906 4.85 45.9613 4.85C46.2226 4.85 46.4419 4.934 46.6193 5.102C46.7966 5.26067 46.8853 5.466 46.8853 5.718C46.8853 5.97933 46.7966 6.194 46.6193 6.362C46.4419 6.53 46.2226 6.614 45.9613 6.614ZM51.5613 15C51.1133 15 50.7259 14.93 50.3993 14.79C50.0726 14.65 49.8206 14.4167 49.6433 14.09C49.4659 13.7633 49.3773 13.32 49.3773 12.76V9.134H48.1593V7.944H49.3773L49.5453 6.18H50.7773V7.944H52.7793V9.134H50.7773V12.774C50.7773 13.1753 50.8613 13.4507 51.0293 13.6C51.1973 13.74 51.4866 13.81 51.8973 13.81H52.7093V15H51.5613ZM57.2351 15C56.7871 15 56.3998 14.93 56.0731 14.79C55.7464 14.65 55.4944 14.4167 55.3171 14.09C55.1398 13.7633 55.0511 13.32 55.0511 12.76V9.134H53.8331V7.944H55.0511L55.2191 6.18H56.4511V7.944H58.4531V9.134H56.4511V12.774C56.4511 13.1753 56.5351 13.4507 56.7031 13.6C56.8711 13.74 57.1604 13.81 57.5711 13.81H58.3831V15H57.2351ZM62.9975 15.168C62.3255 15.168 61.7282 15.014 61.2055 14.706C60.6828 14.398 60.2722 13.9687 59.9735 13.418C59.6842 12.8673 59.5395 12.228 59.5395 11.5C59.5395 10.7533 59.6842 10.1047 59.9735 9.554C60.2722 8.994 60.6828 8.56 61.2055 8.252C61.7282 7.93467 62.3348 7.776 63.0255 7.776C63.7162 7.776 64.3088 7.93 64.8035 8.238C65.2982 8.546 65.6808 8.95667 65.9515 9.47C66.2222 9.974 66.3575 10.534 66.3575 11.15C66.3575 11.2433 66.3528 11.346 66.3435 11.458C66.3435 11.5607 66.3388 11.6773 66.3295 11.808H60.5615V10.814H64.9575C64.9295 10.226 64.7335 9.76867 64.3695 9.442C64.0055 9.106 63.5528 8.938 63.0115 8.938C62.6288 8.938 62.2788 9.02667 61.9615 9.204C61.6442 9.372 61.3875 9.624 61.1915 9.96C61.0048 10.2867 60.9115 10.702 60.9115 11.206V11.598C60.9115 12.1207 61.0048 12.564 61.1915 12.928C61.3875 13.2827 61.6442 13.5533 61.9615 13.74C62.2788 13.9173 62.6242 14.006 62.9975 14.006C63.4455 14.006 63.8142 13.908 64.1035 13.712C64.3928 13.516 64.6075 13.25 64.7475 12.914H66.1475C66.0262 13.3433 65.8208 13.7307 65.5315 14.076C65.2422 14.412 64.8828 14.678 64.4535 14.874C64.0335 15.07 63.5482 15.168 62.9975 15.168ZM67.9129 15V7.944H69.1729L69.2989 9.274C69.4576 8.95667 69.6629 8.69067 69.9149 8.476C70.1669 8.252 70.4609 8.07933 70.7969 7.958C71.1423 7.83667 71.5343 7.776 71.9729 7.776V9.26H71.4689C71.1796 9.26 70.9043 9.29733 70.6429 9.372C70.3816 9.43733 70.1483 9.554 69.9429 9.722C69.7469 9.89 69.5929 10.1187 69.4809 10.408C69.3689 10.6973 69.3129 11.0567 69.3129 11.486V15H67.9129Z" fill="white"/>
<path d="M16.845 5.5C16.2675 5.7625 15.645 5.935 15 6.0175C15.66 5.62 16.17 4.99 16.41 4.2325C15.7875 4.6075 15.0975 4.87 14.37 5.02C13.7775 4.375 12.945 4 12 4C10.2375 4 8.79753 5.44 8.79753 7.2175C8.79753 7.4725 8.82753 7.72 8.88003 7.9525C6.21003 7.8175 3.83253 6.535 2.25003 4.5925C1.97253 5.065 1.81503 5.62 1.81503 6.205C1.81503 7.3225 2.37753 8.3125 3.24753 8.875C2.71503 8.875 2.22003 8.725 1.78503 8.5V8.5225C1.78503 10.0825 2.89503 11.3875 4.36503 11.68C3.89307 11.8092 3.3976 11.8271 2.91753 11.7325C3.12123 12.3719 3.52018 12.9313 4.05829 13.3322C4.5964 13.7331 5.24661 13.9553 5.91753 13.9675C4.78025 14.8678 3.37053 15.3545 1.92003 15.3475C1.66503 15.3475 1.41003 15.3325 1.15503 15.3025C2.58003 16.2175 4.27503 16.75 6.09003 16.75C12 16.75 15.2475 11.845 15.2475 7.5925C15.2475 7.45 15.2475 7.315 15.24 7.1725C15.87 6.7225 16.41 6.1525 16.845 5.5Z" fill="white"/>
</svg>
